<svg width="37" height="39" viewBox="0 0 37 39" fill="none" xmlns="http://www.w3.org/2000/svg">
<path d="M34.8826 10.7259H27.9417V1.87296C27.9417 0.840126 27.0927 0 26.049 0H10.951C9.90654 0 9.05604 0.840126 9.05604 1.87296V10.7267H2.11739C0.949784 10.7267 0 11.6666 0 12.822V31.8692C0 32.2059 0.275545 32.4793 0.616513 32.4793H14.5169C14.8463 32.9927 15.1965 33.4977 15.5514 33.9897C13.6849 34.4383 12.5627 35.299 12.5627 36.3326C12.5627 38.0837 15.5498 39 18.5 39C21.4502 39 24.4373 38.0837 24.4373 36.3326C24.4373 35.2868 23.3467 34.4429 21.4725 33.9943C21.8289 33.5015 22.1791 32.9957 22.5077 32.4793H36.3835C36.7237 32.4793 37 32.2066 37 31.8692V12.8213C37 11.6666 36.0502 10.7259 34.8826 10.7259ZM1.23226 12.8213C1.23226 12.3384 1.62941 11.9461 2.11662 11.9461H9.05604V31.2591H1.23226V12.8213ZM21.6557 31.5265C21.6441 31.544 21.6326 31.5615 21.6226 31.5798C20.9483 32.6697 20.1448 33.7368 19.3959 34.7308C19.2181 34.9669 19.0442 35.1977 18.8756 35.4247C18.7825 35.5504 18.6647 35.609 18.51 35.609C18.3522 35.6083 18.2306 35.5466 18.1383 35.4217C17.9458 35.1596 17.7457 34.8923 17.5433 34.6211C16.8075 33.6355 16.0447 32.6126 15.4005 31.5836C15.3882 31.5615 15.3751 31.5402 15.3605 31.5196C13.7734 28.9611 12.9422 26.3638 15.1303 24.1999C16.0609 23.279 17.2831 22.819 18.5054 22.819C19.7276 22.819 20.9499 23.279 21.8797 24.1999C24.0502 26.3471 23.2089 28.9969 21.6557 31.5265ZM23.205 36.3319C23.205 36.8231 21.5441 37.7798 18.5 37.7798C15.4559 37.7798 13.795 36.8231 13.795 36.3319C13.795 35.9807 14.6785 35.3737 16.3449 35.069C16.4142 35.1619 16.4834 35.2548 16.5519 35.3462C16.7528 35.6159 16.9506 35.8802 17.1431 36.1422C17.4694 36.5824 17.952 36.8262 18.5062 36.83C19.0588 36.83 19.5429 36.587 19.8685 36.1475C20.0347 35.9236 20.2079 35.6943 20.3842 35.4605C20.4804 35.3325 20.5774 35.2038 20.6751 35.0736C22.3284 35.379 23.205 35.983 23.205 36.3319ZM22.7517 23.3369C20.4103 21.0199 16.6004 21.0199 14.2591 23.3369C12.5565 25.0202 12.1355 27.1087 13.0068 29.5438C13.2123 30.1181 13.4809 30.6917 13.7896 31.2591H10.2891V1.87296C10.2891 1.51268 10.5862 1.2202 10.951 1.2202H26.049C26.4131 1.2202 26.7086 1.51345 26.7086 1.87296V31.2591H23.2274C23.5106 30.732 23.76 30.1981 23.9578 29.6588C24.8729 27.1613 24.4673 25.0339 22.7517 23.3369ZM35.7677 31.2591H27.9417V11.9461H34.8826C35.3706 11.9461 35.767 12.3391 35.767 12.8213V31.2591H35.7677ZM18.5 23.4367C16.4604 23.4367 14.8009 25.0789 14.8009 27.0973C14.8009 29.1158 16.4604 30.7579 18.5 30.7579C20.5396 30.7579 22.1991 29.1158 22.1991 27.0973C22.1991 25.0789 20.5396 23.4367 18.5 23.4367ZM18.5 29.5385C17.14 29.5385 16.0332 28.4432 16.0332 27.0973C16.0332 25.7514 17.14 24.6562 18.5 24.6562C19.86 24.6562 20.9668 25.7514 20.9668 27.0973C20.9668 28.4432 19.86 29.5385 18.5 29.5385ZM14.7863 3.59891H12.8028C12.251 3.59891 11.8023 4.04297 11.8023 4.58909V6.55192C11.8023 7.09804 12.251 7.5421 12.8028 7.5421H14.7863C15.3382 7.5421 15.7869 7.09804 15.7869 6.55192V4.58909C15.7869 4.04297 15.3382 3.59891 14.7863 3.59891ZM14.5546 6.32189H13.0361V4.81911H14.5546V6.32189ZM19.4906 3.59891H17.5071C16.9553 3.59891 16.5065 4.04297 16.5065 4.58909V6.55192C16.5065 7.09804 16.9553 7.5421 17.5071 7.5421H19.4906C20.0424 7.5421 20.4912 7.09804 20.4912 6.55192V4.58909C20.4912 4.04297 20.0424 3.59891 19.4906 3.59891ZM19.2581 6.32189H17.7396V4.81911H19.2581V6.32189ZM22.2114 7.54134H24.1964C24.7483 7.54134 25.197 7.09728 25.197 6.55116V4.58909C25.197 4.04297 24.7483 3.59891 24.1964 3.59891H22.2114C21.6595 3.59891 21.2108 4.04297 21.2108 4.58909V6.55192C21.2108 7.09728 21.6595 7.54134 22.2114 7.54134ZM22.4438 4.81911H23.9647V6.32189H22.4438V4.81911ZM14.7863 8.59092H12.8028C12.251 8.59092 11.8023 9.03498 11.8023 9.5811V11.5455C11.8023 12.0916 12.251 12.5356 12.8028 12.5356H14.7863C15.3382 12.5356 15.7869 12.0916 15.7869 11.5455V9.5811C15.7869 9.03498 15.3382 8.59092 14.7863 8.59092ZM14.5546 11.3154H13.0361V9.81036H14.5546V11.3154ZM19.4906 8.59092H17.5071C16.9553 8.59092 16.5065 9.03498 16.5065 9.5811V11.5455C16.5065 12.0916 16.9553 12.5356 17.5071 12.5356H19.4906C20.0424 12.5356 20.4912 12.0916 20.4912 11.5455V9.5811C20.4912 9.03498 20.0424 8.59092 19.4906 8.59092ZM19.2581 11.3154H17.7396V9.81036H19.2581V11.3154ZM22.2114 12.5356H24.1964C24.7483 12.5356 25.197 12.0916 25.197 11.5455V9.5811C25.197 9.03498 24.7483 8.59092 24.1964 8.59092H22.2114C21.6595 8.59092 21.2108 9.03498 21.2108 9.5811V11.5455C21.2108 12.0916 21.6595 12.5356 22.2114 12.5356ZM22.4438 9.81036H23.9647V11.3154H22.4438V9.81036ZM14.7863 13.5845H12.8028C12.251 13.5845 11.8023 14.0285 11.8023 14.5746V16.5375C11.8023 17.0836 12.251 17.5276 12.8028 17.5276H14.7863C15.3382 17.5276 15.7869 17.0836 15.7869 16.5375V14.5746C15.7869 14.0285 15.3382 13.5845 14.7863 13.5845ZM14.5546 16.3074H13.0361V14.8047H14.5546V16.3074ZM19.4906 13.5845H17.5071C16.9553 13.5845 16.5065 14.0285 16.5065 14.5746V16.5375C16.5065 17.0836 16.9553 17.5276 17.5071 17.5276H19.4906C20.0424 17.5276 20.4912 17.0836 20.4912 16.5375V14.5746C20.4912 14.0285 20.0424 13.5845 19.4906 13.5845ZM19.2581 16.3074H17.7396V14.8047H19.2581V16.3074ZM25.197 16.5375V14.5746C25.197 14.0285 24.7483 13.5845 24.1964 13.5845H22.2114C21.6595 13.5845 21.2108 14.0285 21.2108 14.5746V16.5375C21.2108 17.0836 21.6595 17.5276 22.2114 17.5276H24.1964C24.7483 17.5276 25.197 17.0836 25.197 16.5375ZM23.9639 16.3074H22.4431V14.8047H23.9639V16.3074ZM32.8476 14.0666H30.8626C30.3107 14.0666 29.862 14.5107 29.862 15.0568V17.0196C29.862 17.5657 30.3107 18.0098 30.8626 18.0098H32.8476C33.3994 18.0098 33.8482 17.5657 33.8482 17.0196V15.0568C33.8474 14.5107 33.3987 14.0666 32.8476 14.0666ZM32.6151 16.7888H31.0943V15.286H32.6151V16.7888ZM6.13588 14.0666H4.15242C3.60056 14.0666 3.15183 14.5107 3.15183 15.0568V17.0196C3.15183 17.5657 3.60056 18.0098 4.15242 18.0098H6.13588C6.68774 18.0098 7.13646 17.5657 7.13646 17.0196V15.0568C7.13646 14.5107 6.68774 14.0666 6.13588 14.0666ZM5.90344 16.7888H4.38486V15.286H5.90344V16.7888Z" fill="#1E1E1E"/>
</svg>
