<svg width="33" height="32" viewBox="0 0 33 32" fill="none" xmlns="http://www.w3.org/2000/svg">
<path d="M28.0536 10.9822C29.837 9.9739 31.0441 8.05988 31.0441 5.86882C31.0441 2.63278 28.4116 0 25.1753 0C21.725 0 18.9689 2.99174 19.3396 6.49818C17.6816 5.65895 15.7147 5.65863 14.056 6.49818C14.4268 2.99943 11.6777 0 8.22035 0C4.9847 0 2.35153 2.63278 2.35153 5.86882C2.35153 8.05995 3.55858 9.9739 5.34262 10.9822C2.4476 12.1312 0.395386 14.9596 0.395386 18.259V25.432C0.395386 25.7921 0.687105 26.0843 1.04756 26.0843H8.87253V31.3008C8.87253 31.6609 9.16484 31.953 9.52471 31.953H23.8707C24.2311 31.953 24.5229 31.6609 24.5229 31.3008V26.0843H32.3485C32.7084 26.0843 33 25.7922 33 25.432V18.259C33.0001 14.9596 30.9479 12.1312 28.0536 10.9822ZM25.1752 1.30403C27.6924 1.30403 29.7394 3.35181 29.7394 5.86876C29.7394 8.38597 27.6923 10.4337 25.1752 10.4337C23.9401 10.4337 22.7891 9.94898 21.9241 9.06939C21.6845 8.60184 21.384 8.17127 21.0337 7.78655C20.7541 7.18401 20.6102 6.53946 20.6102 5.86876C20.6102 3.35187 22.658 1.30403 25.1752 1.30403ZM21.2598 11.8478C21.1789 14.3985 19.1152 16.3026 16.698 16.3026C14.1719 16.3026 12.133 14.2431 12.133 11.7376C12.133 9.22102 14.1807 7.17324 16.698 7.17324C19.2375 7.17324 21.3222 9.26622 21.2598 11.8478ZM3.65582 5.86882C3.65582 3.35187 5.7036 1.3041 8.22016 1.3041C10.7374 1.3041 12.7851 3.35187 12.7851 5.86882C12.7851 6.53952 12.6419 7.18407 12.3616 7.78662C12.0113 8.17134 11.7107 8.60191 11.4712 9.06945C10.6062 9.94905 9.4559 10.4338 8.22016 10.4338C5.70366 10.4338 3.65582 8.38597 3.65582 5.86882ZM1.69916 24.7798V18.259C1.69916 14.6631 4.62463 11.7376 8.22016 11.7376C9.14188 11.7376 10.0259 11.9242 10.8552 12.2918C11.0393 14.2485 12.1877 15.9288 13.8196 16.851C10.9246 18.0001 8.87247 20.8288 8.87247 24.1279V24.7798H1.69916ZM23.2192 30.649H10.177V24.1279C10.177 20.532 13.1024 17.6069 16.698 17.6069C20.2937 17.6069 23.2192 20.5322 23.2192 24.1279V30.649ZM31.6962 24.7798H24.5229V24.1279C24.5229 20.8288 22.4706 18.0001 19.5758 16.851C21.2076 15.9287 22.3561 14.2485 22.5402 12.2918C23.3695 11.9242 24.2542 11.7376 25.1752 11.7376C28.7708 11.7376 31.6962 14.6631 31.6962 18.259V24.7798H31.6962Z" fill="#1E1E1E"/>
</svg>
