<svg width="26" height="26" viewBox="0 0 26 26" fill="none" xmlns="http://www.w3.org/2000/svg">
<path d="M0 9.75H26V15.4375H0V9.75Z" fill="#E6E7E8"/>
<path d="M21.9375 3.65625H4.0625C1.37028 3.65625 0 5.65703 0 8.125V9.75H26V8.125C26 5.65703 24.6297 3.65625 21.9375 3.65625Z" fill="#FF9933"/>
<path d="M0 17.0625C0 19.5305 1.37028 21.5312 4.0625 21.5312H21.9375C24.6297 21.5312 26 19.5305 26 17.0625V15.4375H0V17.0625Z" fill="#128807"/>
<path fill-rule="evenodd" clip-rule="evenodd" d="M13.1259 9.98682C13.645 9.98682 14.1524 10.1408 14.5839 10.4293C15.0155 10.7177 15.3517 11.1277 15.5502 11.6073C15.7486 12.087 15.8004 12.6147 15.6988 13.1237C15.5972 13.6327 15.347 14.1002 14.9796 14.467C14.6123 14.8337 14.1445 15.0833 13.6353 15.184C13.1261 15.2848 12.5985 15.2323 12.1191 15.0331C11.6398 14.8339 11.2303 14.497 10.9426 14.065C10.6548 13.633 10.5016 13.1254 10.5024 12.6063C10.5036 11.9112 10.7805 11.245 11.2724 10.7539C11.7642 10.2628 12.4309 9.98692 13.1259 9.98682ZM11.377 11.1223C11.4221 11.1735 11.4303 11.2283 11.4002 11.2742C11.3875 11.2954 11.3678 11.3114 11.3445 11.3197C11.3267 11.3264 11.3075 11.3286 11.2886 11.3262C11.2697 11.3238 11.2517 11.3168 11.2361 11.3059C11.1655 11.407 11.1034 11.5138 11.0504 11.6252C11.1118 11.6654 11.1321 11.7158 11.1118 11.7715C11.1009 11.7998 11.0794 11.8228 11.0519 11.8355C11.0243 11.8483 10.9929 11.8498 10.9643 11.8397C10.935 11.8982 10.8704 12.1452 10.8696 12.1972C10.8965 12.2024 10.9207 12.2169 10.9379 12.2383C10.956 12.2594 10.9653 12.2868 10.9639 12.3146C10.9562 12.391 10.909 12.4235 10.8371 12.4263C10.8258 12.4999 10.827 12.7461 10.8384 12.7944C10.9147 12.8025 10.9549 12.8358 10.9614 12.8939C10.9704 12.9565 10.9403 12.9971 10.8672 13.0256C10.8891 13.1462 10.9204 13.2648 10.9614 13.381C10.9901 13.3724 11.0208 13.3734 11.0488 13.3839C11.076 13.3957 11.0975 13.416 11.1089 13.444C11.1191 13.4659 11.1211 13.4887 11.1158 13.5127C11.112 13.5305 11.1041 13.5472 11.0928 13.5614C11.0814 13.5756 11.0669 13.5871 11.0504 13.5947C11.1049 13.7077 11.165 13.8141 11.2361 13.914C11.2994 13.8828 11.3547 13.8901 11.3921 13.9348C11.4085 13.9531 11.4179 13.9767 11.4185 14.0014C11.4197 14.0196 11.4166 14.0378 11.4092 14.0545C11.4018 14.0712 11.3905 14.0859 11.3762 14.0973C11.4575 14.1923 11.544 14.2793 11.6383 14.3593C11.6915 14.3126 11.7467 14.3053 11.7943 14.3386C11.8158 14.3536 11.8308 14.3735 11.8377 14.3979C11.8427 14.4151 11.8437 14.4333 11.8408 14.451C11.8378 14.4687 11.8309 14.4855 11.8207 14.5003C11.9234 14.5709 12.0295 14.6319 12.1404 14.6847C12.1834 14.6242 12.2326 14.6038 12.2858 14.6242C12.309 14.6325 12.3291 14.6476 12.3435 14.6676C12.3638 14.7001 12.3667 14.7359 12.3549 14.7741C12.4719 14.8155 12.5897 14.8472 12.7116 14.8687C12.7355 14.8001 12.777 14.768 12.8322 14.772C12.8578 14.7741 12.881 14.7818 12.9013 14.7993C12.9297 14.8253 12.9431 14.8582 12.9407 14.8988C13.0658 14.9077 13.1881 14.9085 13.3096 14.8988C13.3185 14.8204 13.3498 14.781 13.4128 14.772C13.4367 14.7687 13.461 14.7736 13.4818 14.7858C13.497 14.7945 13.5101 14.8064 13.5201 14.8207C13.5301 14.8351 13.5367 14.8515 13.5395 14.8687C13.6622 14.846 13.7812 14.8147 13.8962 14.7737C13.886 14.6969 13.9047 14.651 13.9563 14.627C13.9751 14.6189 13.9957 14.6157 14.016 14.6177C14.0372 14.6193 14.0563 14.6258 14.0717 14.6396C14.0867 14.6522 14.0993 14.6676 14.1139 14.6835C14.2247 14.6312 14.3309 14.5699 14.4316 14.5003C14.3902 14.4353 14.4146 14.3731 14.4483 14.3455C14.46 14.3354 14.4737 14.3278 14.4884 14.323C14.5032 14.3183 14.5187 14.3165 14.5341 14.3178C14.5496 14.3191 14.5646 14.3235 14.5783 14.3307C14.592 14.3379 14.6042 14.3478 14.614 14.3597C14.7079 14.2793 14.796 14.1919 14.8749 14.0981C14.8289 14.0457 14.82 13.9904 14.8537 13.9429C14.8674 13.9216 14.8883 13.906 14.9126 13.899C14.93 13.8935 14.9483 13.8921 14.9663 13.8948C14.9842 13.8976 15.0013 13.9044 15.0162 13.9148C15.0873 13.8125 15.1491 13.7064 15.2019 13.5951C15.1426 13.5553 15.121 13.5086 15.1389 13.4554C15.1454 13.4317 15.1597 13.4109 15.1795 13.3965C15.1953 13.3855 15.2134 13.3783 15.2325 13.3754C15.2515 13.3726 15.2709 13.3743 15.2892 13.3802C15.3156 13.3229 15.3814 13.0816 15.3851 13.0231C15.357 13.018 15.3316 13.003 15.3136 12.9809C15.3041 12.9699 15.297 12.9571 15.2928 12.9433C15.2885 12.9294 15.2872 12.9148 15.2888 12.9004C15.2904 12.8747 15.301 12.8504 15.3189 12.8318C15.3311 12.8189 15.3461 12.8089 15.3627 12.8026C15.3793 12.7963 15.3971 12.7938 15.4148 12.7952C15.4249 12.6723 15.4249 12.5488 15.4148 12.4259C15.3372 12.4182 15.3002 12.3882 15.29 12.3268C15.2855 12.3036 15.2889 12.2796 15.2998 12.2586C15.3082 12.2423 15.3202 12.2283 15.3349 12.2175C15.3497 12.2067 15.3667 12.1995 15.3847 12.1964C15.3634 12.075 15.3317 11.9557 15.29 11.8397C15.2149 11.8523 15.1686 11.832 15.1438 11.78C15.1374 11.7661 15.1338 11.7511 15.1332 11.7357C15.1327 11.7204 15.1352 11.7052 15.1406 11.6908C15.146 11.6765 15.1542 11.6634 15.1647 11.6523C15.1752 11.6411 15.1879 11.6322 15.2019 11.626C15.1493 11.5144 15.0871 11.4074 15.0162 11.3063C14.9508 11.3376 14.8976 11.3303 14.8602 11.2856C14.8436 11.2667 14.8344 11.2425 14.8342 11.2173C14.8335 11.1995 14.8369 11.1817 14.8442 11.1654C14.8516 11.1491 14.8626 11.1348 14.8765 11.1235C14.7962 11.0296 14.7089 10.942 14.6153 10.8615C14.5592 10.9094 14.5048 10.9155 14.4584 10.8822C14.4374 10.8682 14.422 10.8472 14.415 10.8229C14.4099 10.8058 14.4088 10.7879 14.4118 10.7703C14.4147 10.7528 14.4217 10.7362 14.432 10.7217C14.3308 10.6511 14.2238 10.589 14.1123 10.5361C14.0705 10.5962 14.0234 10.6161 13.9701 10.5982C13.9465 10.5907 13.9259 10.5759 13.9112 10.556C13.9005 10.5401 13.8937 10.522 13.8913 10.503C13.8889 10.484 13.891 10.4647 13.8974 10.4467C13.7815 10.4048 13.6622 10.3731 13.5407 10.352C13.5176 10.4178 13.4757 10.452 13.4217 10.4487C13.3964 10.4479 13.3722 10.4388 13.3526 10.4227C13.3381 10.4105 13.3268 10.395 13.3197 10.3774C13.3125 10.3599 13.3098 10.3408 13.3116 10.322C13.1889 10.3115 13.0654 10.3117 12.9427 10.3224C12.9342 10.3955 12.9025 10.4373 12.8485 10.4463C12.8242 10.4515 12.7989 10.4483 12.7766 10.4373C12.76 10.4291 12.7455 10.4171 12.7345 10.4022C12.7235 10.3872 12.7162 10.3699 12.7132 10.3516C12.5918 10.3737 12.4723 10.4056 12.3561 10.4471C12.3691 10.519 12.3488 10.5661 12.2992 10.5917C12.2777 10.6027 12.2549 10.6072 12.2298 10.6027C12.2108 10.6001 12.1929 10.5926 12.1777 10.581C12.1626 10.5694 12.1507 10.5541 12.1432 10.5365C12.0738 10.5625 11.8528 10.6904 11.8235 10.7225C11.8536 10.7827 11.8467 10.8359 11.8052 10.8741C11.7935 10.8844 11.7799 10.8923 11.765 10.8972C11.7502 10.9022 11.7346 10.9041 11.719 10.9029C11.7034 10.9017 11.6882 10.8974 11.6744 10.8902C11.6605 10.883 11.6482 10.8731 11.6383 10.8611C11.5445 10.9412 11.4572 11.0285 11.377 11.1223Z" fill="#010088"/>
<path fill-rule="evenodd" clip-rule="evenodd" d="M14.2512 14.5548C14.2464 14.5495 14.2415 14.5458 14.2378 14.5402C14.0017 14.1791 13.7648 13.8185 13.5273 13.4583C13.522 13.4482 13.5159 13.438 13.5111 13.4266C13.4558 13.2978 13.4018 13.1691 13.3453 13.0407C13.3434 13.0341 13.3408 13.0277 13.3376 13.0216C13.3148 13.0301 13.2941 13.0399 13.2697 13.0492L13.2779 13.0699C13.3286 13.1947 13.3774 13.3198 13.429 13.4445C13.4428 13.4778 13.4485 13.5128 13.4558 13.5477C13.4956 13.7342 13.533 13.9214 13.5732 14.1083L13.7105 14.7758L13.7112 14.7808L13.7093 14.7855L13.7036 14.7713C13.5923 14.4305 13.4782 14.09 13.3664 13.7492C13.3441 13.6826 13.3242 13.6168 13.2998 13.5501C13.2884 13.5168 13.2848 13.4827 13.2795 13.4482C13.2653 13.3515 13.2531 13.254 13.2372 13.1573C13.2352 13.1341 13.2316 13.1114 13.2283 13.089C13.2273 13.0798 13.2258 13.0705 13.2238 13.0614C13.1995 13.0638 13.1771 13.0671 13.1527 13.0699C13.1527 13.0797 13.1536 13.0898 13.1544 13.1C13.1686 13.219 13.1808 13.3385 13.1978 13.4571C13.2068 13.5221 13.2023 13.5859 13.1987 13.6509C13.1962 13.7057 13.1926 13.7606 13.1901 13.8158C13.1828 13.9271 13.1771 14.038 13.1694 14.1489L13.1572 14.3781C13.1503 14.5081 13.1422 14.6377 13.1353 14.7668C13.132 14.8034 13.1312 14.8408 13.1276 14.8765L13.1178 14.7534L13.1052 14.4869L13.0906 14.2493C13.0865 14.168 13.0812 14.0872 13.0768 14.0059C13.0731 13.9527 13.0711 13.8995 13.0678 13.8471C13.0634 13.763 13.0581 13.6789 13.054 13.5956C13.05 13.5512 13.0511 13.5065 13.0573 13.4624C13.0658 13.4023 13.0723 13.3409 13.0796 13.28C13.0877 13.2198 13.0947 13.1593 13.102 13.1C13.1028 13.0907 13.1028 13.0809 13.104 13.0699L13.0329 13.0606C13.0309 13.0768 13.0272 13.0927 13.0244 13.1089C13.0075 13.233 12.9902 13.3571 12.9724 13.4811C12.9675 13.5294 12.9484 13.5741 12.9322 13.6192C12.807 14.0003 12.6815 14.3817 12.5547 14.7624C12.5519 14.7693 12.5507 14.7758 12.5454 14.7823C12.5454 14.7774 12.5454 14.7738 12.5474 14.7693C12.5998 14.5125 12.6527 14.2554 12.7071 13.9986C12.742 13.828 12.7782 13.6578 12.8127 13.4876L12.8225 13.4595C12.8749 13.3308 12.9252 13.2008 12.9789 13.072C12.9807 13.0644 12.9835 13.057 12.987 13.05C12.9646 13.0404 12.9421 13.0311 12.9196 13.022C12.9167 13.0293 12.9122 13.0354 12.9098 13.0427C12.8537 13.1719 12.7989 13.3015 12.7428 13.4307C12.7393 13.4404 12.735 13.4498 12.7298 13.4587C12.4901 13.8219 12.2511 14.1854 12.0128 14.5495C12.0095 14.555 12.0053 14.5598 12.0002 14.5637C12.0022 14.5572 12.0059 14.5519 12.0083 14.5463L12.5958 13.3815C12.6008 13.371 12.6071 13.361 12.6145 13.3519L12.8655 13.0151C12.8708 13.0094 12.8741 13.0041 12.8789 12.998C12.8582 12.983 12.8416 12.9692 12.8208 12.9533C12.8164 12.9586 12.8123 12.9631 12.8087 12.9684C12.7209 13.0785 12.6344 13.1894 12.5487 13.2991C12.5389 13.3092 12.53 13.3198 12.519 13.3291C12.1989 13.6155 11.8787 13.9003 11.5574 14.1871C11.5509 14.1924 11.5444 14.1981 11.5363 14.2018C11.5399 14.1981 11.542 14.1936 11.5444 14.1908C11.8081 13.8963 12.0697 13.6021 12.3321 13.3076C12.3472 13.2913 12.3622 13.2751 12.3764 13.2576C12.4065 13.2227 12.4402 13.1918 12.4767 13.1642L12.7684 12.9347C12.7749 12.9298 12.7798 12.9245 12.7871 12.9196C12.7727 12.9002 12.7578 12.8811 12.7424 12.8623C12.7359 12.8664 12.7307 12.8705 12.7246 12.8749C12.6128 12.9586 12.5007 13.0415 12.389 13.1256C12.3765 13.135 12.3632 13.1433 12.3492 13.1504C11.9677 13.3429 11.5842 13.5355 11.2019 13.7281C11.1946 13.7313 11.1877 13.7354 11.1792 13.7354L11.1946 13.7244L11.908 13.2572C12.0323 13.1756 12.157 13.0939 12.2805 13.0118C12.2911 13.0058 12.3021 13.0005 12.3114 12.9956C12.441 12.9408 12.5702 12.8855 12.6986 12.8303C12.7047 12.8278 12.7107 12.8254 12.7181 12.8217L12.6908 12.7547C12.6831 12.7567 12.6782 12.7588 12.6722 12.7608C12.5405 12.8132 12.4101 12.8664 12.2777 12.9184C12.2505 12.9286 12.2208 12.9334 12.192 12.9395L11.3043 13.124C11.1926 13.1479 11.0788 13.1715 10.9667 13.1947C10.9622 13.1957 10.9574 13.1952 10.9533 13.193C10.9842 13.1833 11.0151 13.1723 11.0455 13.1622C11.429 13.0358 11.8121 12.9099 12.1944 12.7827C12.2245 12.7726 12.2566 12.7697 12.287 12.7648C12.4105 12.7478 12.5336 12.7299 12.6559 12.7124C12.6634 12.7111 12.6709 12.7095 12.6782 12.7076C12.6758 12.684 12.6722 12.6604 12.6701 12.6361L12.6108 12.6426L12.3654 12.6722C12.3195 12.6783 12.274 12.6832 12.2289 12.6889C12.218 12.6901 12.2074 12.6905 12.1968 12.6901L11.9385 12.6751L11.7857 12.6665L11.5225 12.6511L11.1386 12.63C11.0459 12.6251 10.9557 12.619 10.8635 12.6125C10.8782 12.6113 10.8944 12.6088 10.9102 12.6088L11.2251 12.591L11.6411 12.5674L11.9856 12.5479L12.2017 12.5349C12.2102 12.5345 12.2204 12.5357 12.2289 12.5365L12.4767 12.5662L12.6522 12.5873H12.6701C12.6722 12.5642 12.6758 12.5422 12.6782 12.517C12.6632 12.5138 12.6462 12.5113 12.6311 12.5085C12.5227 12.4935 12.415 12.4776 12.3065 12.4618C12.284 12.4592 12.2615 12.4562 12.2391 12.4528C12.2267 12.4512 12.2144 12.4483 12.2025 12.4443C11.8796 12.3383 11.5586 12.2314 11.2361 12.1254C11.1463 12.096 11.0566 12.0662 10.9671 12.036C10.9594 12.034 10.9521 12.0305 10.9456 12.0259L11.0021 12.0373L11.6915 12.1807C11.8759 12.2193 12.0632 12.2574 12.2476 12.2964C12.2587 12.2989 12.2696 12.3023 12.2801 12.3066C12.4101 12.3578 12.5389 12.4106 12.6701 12.4626L12.6896 12.4703C12.6986 12.448 12.7083 12.4264 12.7181 12.4033C12.7114 12.3993 12.7045 12.3959 12.6973 12.3931C12.5682 12.3387 12.4394 12.283 12.3106 12.2274C12.3005 12.2231 12.2907 12.2181 12.2813 12.2123C11.9169 11.9739 11.5542 11.7342 11.1893 11.4953C11.1845 11.4926 11.1807 11.4885 11.1784 11.4835L11.193 11.4917C11.5562 11.6745 11.9198 11.8573 12.2838 12.0397C12.3439 12.0698 12.4024 12.1059 12.456 12.1469C12.5446 12.2156 12.6348 12.2814 12.725 12.3488C12.7311 12.3533 12.7363 12.3574 12.7428 12.3614L12.7875 12.305L12.7717 12.2912L12.4414 12.0316C12.43 12.0226 12.4211 12.0133 12.4113 12.0035C12.1237 11.6814 11.8357 11.3588 11.5489 11.0367C11.5447 11.0333 11.5415 11.029 11.5395 11.0241C11.5481 11.0249 11.5513 11.0306 11.555 11.0342C11.7292 11.1886 11.9019 11.343 12.075 11.4973L12.5227 11.8963C12.5308 11.9036 12.5385 11.9125 12.5458 11.9207L12.8022 12.2465C12.8087 12.2538 12.8135 12.2615 12.8208 12.2713L12.8797 12.2262C12.8761 12.2205 12.8712 12.216 12.8684 12.2107C12.7847 12.099 12.7014 11.9869 12.6169 11.8756C12.6082 11.8625 12.6002 11.8489 12.5929 11.8349C12.3979 11.451 12.2046 11.0655 12.0108 10.6812C12.0071 10.6739 12.0035 10.6682 12.0027 10.6605C12.0063 10.6645 12.01 10.6682 12.0124 10.6718L12.4276 11.3064L12.7213 11.7533C12.7315 11.7703 12.7428 11.7882 12.7493 11.8069C12.8042 11.932 12.857 12.0576 12.9102 12.1827C12.9139 12.1884 12.9163 12.1945 12.92 12.2018L12.9874 12.1738L12.9801 12.1567C12.9293 12.0299 12.8797 11.9032 12.8282 11.7773C12.8139 11.7452 12.8087 11.7118 12.8017 11.6785C12.7575 11.4669 12.7148 11.2548 12.6705 11.0428C12.6271 10.8388 12.5856 10.6365 12.543 10.4318C12.543 10.4318 12.543 10.4289 12.5446 10.4248L12.5803 10.5333C12.7079 10.9164 12.8342 11.3003 12.9594 11.6842C12.9699 11.7143 12.9736 11.7472 12.9781 11.7785C12.9931 11.8849 13.0081 11.9922 13.0252 12.0994C13.028 12.1197 13.0292 12.14 13.0333 12.1624L13.104 12.1534V12.1266C13.0938 12.0417 13.0829 11.9564 13.0731 11.8719C13.067 11.8223 13.0626 11.774 13.0557 11.7257C13.0516 11.6931 13.0516 11.6603 13.0557 11.6278C13.0585 11.5725 13.0626 11.5177 13.065 11.4628L13.0849 11.1317C13.0886 11.0724 13.0898 11.0123 13.0934 10.953C13.0987 10.8758 13.1028 10.7974 13.1072 10.7198C13.1109 10.6629 13.1137 10.6056 13.1162 10.5492C13.1194 10.4821 13.1247 10.4155 13.1304 10.3489C13.132 10.3672 13.1328 10.3858 13.1337 10.4053C13.1393 10.487 13.1434 10.5687 13.1483 10.6507L13.1694 11.0228L13.182 11.2317C13.1885 11.3523 13.1942 11.4734 13.2011 11.594C13.2031 11.6123 13.2039 11.6294 13.2052 11.6473C13.2104 11.6944 13.2011 11.7411 13.197 11.7878L13.171 12.0007C13.167 12.0409 13.1609 12.0811 13.156 12.1218C13.1552 12.1315 13.1552 12.1421 13.1523 12.1538C13.1775 12.1575 13.2003 12.1599 13.2255 12.1632C13.2291 12.1457 13.2307 12.1295 13.2336 12.1124C13.2531 11.9804 13.2718 11.8483 13.2905 11.7155C13.2921 11.7058 13.2962 11.6956 13.2986 11.6854C13.431 11.2881 13.561 10.8904 13.6927 10.4923C13.6992 10.474 13.704 10.4565 13.7142 10.4391C13.7131 10.4483 13.7116 10.4575 13.7097 10.4667C13.6504 10.7543 13.5887 11.0411 13.5297 11.3279C13.5033 11.4624 13.4753 11.5973 13.4473 11.7318C13.4453 11.7429 13.4417 11.7537 13.4367 11.7638L13.2799 12.1559C13.2771 12.1616 13.275 12.1677 13.2722 12.175C13.2966 12.1843 13.3165 12.1937 13.34 12.203L13.3494 12.1835L13.5131 11.7988C13.5196 11.7858 13.5245 11.7732 13.533 11.7626L14.2419 10.6812C14.2464 10.6755 14.25 10.6698 14.2569 10.6658C14.2541 10.6714 14.2521 10.6771 14.2484 10.6828L13.6654 11.8406C13.6593 11.8516 13.6532 11.8626 13.6459 11.8723C13.5614 11.9848 13.4765 12.0974 13.3932 12.2091C13.3892 12.2155 13.3847 12.2216 13.3798 12.2274L13.4375 12.2725C13.4421 12.2676 13.4463 12.2625 13.4501 12.257C13.5362 12.1473 13.622 12.0373 13.7093 11.9276C13.7189 11.9152 13.7297 11.9038 13.7414 11.8934C14.0623 11.6066 14.3837 11.3202 14.705 11.0342C14.7103 11.0298 14.714 11.0253 14.7225 11.0228L14.7119 11.0358C14.5807 11.1841 14.4495 11.3316 14.3162 11.4791C14.1578 11.6558 14.0014 11.8321 13.8442 12.0088C13.8361 12.0178 13.8263 12.0255 13.8178 12.0328L13.4875 12.2924L13.4712 12.3054C13.4867 12.3249 13.5005 12.3436 13.5167 12.3631L13.5342 12.3501L13.8726 12.0966C13.8812 12.0904 13.8902 12.0847 13.8994 12.0795C14.2894 11.8837 14.677 11.6887 15.0646 11.4929C15.0711 11.49 15.0763 11.4876 15.0832 11.4876C15.0654 11.4994 15.0487 11.5108 15.0308 11.5217C14.6802 11.7521 14.3297 11.9824 13.9778 12.2128C13.9681 12.2184 13.9592 12.2241 13.9486 12.2286C13.819 12.2847 13.6882 12.3399 13.5598 12.3956L13.5391 12.4037C13.5501 12.4264 13.5578 12.448 13.5675 12.4707L13.5862 12.4646C13.7166 12.413 13.8462 12.359 13.9778 12.309C14.0103 12.296 14.0461 12.2903 14.0814 12.283L14.6798 12.1587C14.8659 12.1205 15.0503 12.0815 15.2368 12.0429C15.2539 12.0393 15.2697 12.0356 15.2876 12.0324C15.2921 12.0324 15.2961 12.0316 15.3026 12.034L15.2457 12.0527C14.8488 12.1839 14.4532 12.3147 14.0562 12.4443C14.0262 12.4549 13.9929 12.4577 13.9616 12.4626C13.8726 12.476 13.7849 12.4878 13.6983 12.5004C13.6667 12.5048 13.6354 12.5097 13.6037 12.5138L13.5805 12.5178C13.583 12.5418 13.5866 12.5642 13.5882 12.5902L13.6496 12.5837L13.869 12.5577C13.9238 12.5508 13.9811 12.543 14.0384 12.5378C14.064 12.5357 14.09 12.5382 14.1164 12.5394C14.172 12.5418 14.2277 12.5467 14.2858 12.5491L14.614 12.5686C14.6628 12.5715 14.7115 12.5735 14.7619 12.5768L15.0967 12.5958C15.1759 12.6007 15.2575 12.6044 15.3363 12.6093C15.3559 12.6104 15.3754 12.6121 15.3948 12.6145L15.3355 12.6194L15.0897 12.6328L14.7855 12.6507L14.5559 12.6629C14.4503 12.6694 14.3427 12.6755 14.2362 12.6824C14.1777 12.6848 14.1176 12.6905 14.0587 12.6909C14.025 12.6917 13.9896 12.6852 13.9567 12.6816C13.8845 12.6731 13.8123 12.6644 13.7402 12.6556L13.6017 12.6389H13.5882C13.5866 12.6625 13.583 12.6856 13.5805 12.7104C13.7237 12.7316 13.867 12.7523 14.0103 12.7726C14.0526 12.7778 14.0896 12.7945 14.1294 12.8071L15.2847 13.1886C15.2922 13.1901 15.2993 13.1933 15.3055 13.1979C15.2957 13.1963 15.2864 13.1947 15.2766 13.1938L14.2732 12.9846L14.0083 12.9294C13.9998 12.9269 13.9884 12.9237 13.9791 12.9192C13.8487 12.8676 13.7178 12.8148 13.5866 12.7624L13.5692 12.7563C13.5597 12.7786 13.5498 12.8006 13.5395 12.8225L13.561 12.8327C13.6906 12.8879 13.8194 12.9428 13.9482 12.9984C13.9583 13.0029 13.9685 13.0082 13.9791 13.0155L15.0605 13.724C15.0658 13.7281 15.0727 13.7329 15.0772 13.7407C15.0719 13.7374 15.0658 13.7354 15.0613 13.7321L14.4978 13.4494C14.3012 13.3494 14.103 13.2503 13.9043 13.1504C13.8916 13.1441 13.8798 13.1363 13.869 13.1272C13.7572 13.0439 13.6443 12.9603 13.5326 12.8762C13.5276 12.8719 13.5223 12.8681 13.5167 12.8648C13.5013 12.8835 13.4875 12.9018 13.4712 12.9213L13.4867 12.9334C13.5956 13.0204 13.7065 13.1073 13.8157 13.1938C13.8282 13.2027 13.8395 13.2131 13.8495 13.2247L14.7103 14.1879C14.7138 14.1928 14.7166 14.1981 14.7184 14.2038C14.714 14.1989 14.7079 14.1957 14.7034 14.192C14.3804 13.9032 14.0571 13.6159 13.7333 13.3275C13.7259 13.321 13.7194 13.3136 13.7138 13.3056L13.4505 12.97C13.4469 12.9647 13.4424 12.9598 13.4379 12.9546C13.4192 12.97 13.401 12.9838 13.3823 13.0001C13.3839 13.0049 13.3876 13.0102 13.3908 13.0151L13.6463 13.3555C13.6536 13.3654 13.6602 13.3759 13.6658 13.3868C13.8596 13.7711 14.053 14.1563 14.2464 14.541C14.2495 14.5462 14.2516 14.552 14.2525 14.558H14.2512V14.5548Z" fill="#010088"/>
<path fill-rule="evenodd" clip-rule="evenodd" d="M14.2472 14.5547C14.2514 14.5589 14.2539 14.5635 14.2573 14.5673C14.2552 14.5682 14.2552 14.5695 14.2527 14.5699C14.2518 14.564 14.2489 14.5602 14.248 14.5547H14.2472Z" fill="#010088"/>
</svg>
