<svg width="40" height="40" viewBox="0 0 40 40" fill="none" xmlns="http://www.w3.org/2000/svg">
<path d="M9.01173 13.9203C8.66262 14.6471 8.46704 15.4616 8.46704 16.3219C8.46704 19.3889 10.9534 21.8753 14.0205 21.8753C17.0875 21.8753 19.5739 19.3889 19.5739 16.3219C19.5739 13.2548 17.0875 10.7684 14.0205 10.7684C12.6938 10.7684 11.4757 11.2337 10.5205 12.01" stroke="#1E1E1E" stroke-opacity="0.933333" stroke-width="1.14688" stroke-miterlimit="10" stroke-linecap="round" stroke-linejoin="round"/>
<path d="M22.7431 25.8396C20.6006 23.3868 17.457 21.8752 14.0205 21.8752H12.9286C8.12289 21.8752 3.96614 25.2231 2.94221 29.9185C2.63836 31.3119 3.69961 32.6296 5.12579 32.6296H15.1742" stroke="#1E1E1E" stroke-opacity="0.933333" stroke-width="1.14688" stroke-miterlimit="10" stroke-linecap="round" stroke-linejoin="round"/>
<path d="M14.5968 1.18997L15.5788 2.84155C15.6333 2.93323 15.7232 2.99852 15.8272 3.022L17.7014 3.4455C17.9889 3.51049 18.1023 3.85937 17.9079 4.08087L16.6406 5.52518C16.5702 5.60538 16.5359 5.71097 16.5457 5.81717L16.722 7.73055C16.7491 8.02407 16.4523 8.23969 16.1815 8.12324L14.4163 7.36431C14.3183 7.32218 14.2073 7.32218 14.1093 7.36431L12.3441 8.12332C12.0732 8.23976 11.7765 8.02415 11.8036 7.73063L11.9799 5.81725C11.9897 5.71105 11.9553 5.60546 11.885 5.52525L10.6177 4.08095C10.4233 3.85937 10.5367 3.51049 10.8241 3.44558L12.6984 3.02207C12.8024 2.99852 12.8923 2.9333 12.9468 2.84163L13.9287 1.19005C14.0794 0.936664 14.4462 0.936664 14.5968 1.18997Z" stroke="#1E1E1E" stroke-opacity="0.933333" stroke-width="1.14688" stroke-miterlimit="10" stroke-linecap="round" stroke-linejoin="round"/>
<path d="M4.33828 2.45055L5.14255 3.80326C5.1872 3.87834 5.26075 3.93179 5.346 3.95105L6.88099 4.29795C7.11648 4.35116 7.2093 4.63689 7.05012 4.81833L6.01211 6.00122C5.95446 6.0669 5.9264 6.15337 5.93443 6.24038L6.07886 7.80748C6.10103 8.04786 5.85797 8.22448 5.63617 8.12914L4.19041 7.50753C4.11013 7.47305 4.01922 7.47305 3.93894 7.50753L2.49318 8.12914C2.27137 8.22448 2.02831 8.04794 2.05048 7.80748L2.19491 6.24038C2.20294 6.15337 2.17481 6.0669 2.11723 6.00122L1.07931 4.81833C0.920043 4.63689 1.01294 4.35116 1.24843 4.29795L2.78342 3.95105C2.86867 3.93179 2.94222 3.87834 2.98687 3.80326L3.79114 2.45055C3.91447 2.24304 4.21495 2.24304 4.33828 2.45055Z" stroke="#1E1E1E" stroke-opacity="0.933333" stroke-width="1.14688" stroke-miterlimit="10" stroke-linecap="round" stroke-linejoin="round"/>
<path d="M23.6858 2.45055L22.8815 3.80326C22.8368 3.87834 22.7633 3.93179 22.678 3.95105L21.1431 4.29795C20.9076 4.35116 20.8147 4.63689 20.9739 4.81833L22.0119 6.00122C22.0695 6.0669 22.0976 6.15337 22.0895 6.24038L21.9451 7.80748C21.9229 8.04786 22.166 8.22448 22.3878 8.12914L23.8336 7.50753C23.9138 7.47305 24.0047 7.47305 24.085 7.50753L25.5308 8.12914C25.7526 8.22448 25.9957 8.04794 25.9735 7.80748L25.829 6.24038C25.821 6.15337 25.8492 6.0669 25.9067 6.00122L26.9447 4.81833C27.1039 4.63689 27.011 4.35116 26.7755 4.29795L25.2405 3.95105C25.1553 3.93179 25.0817 3.87834 25.0371 3.80326L24.2328 2.45055C24.1096 2.24304 23.8091 2.24304 23.6858 2.45055Z" stroke="#1E1E1E" stroke-opacity="0.933333" stroke-width="1.14688" stroke-miterlimit="10" stroke-linecap="round" stroke-linejoin="round"/>
<path d="M37.0131 29.4893H35.1307M37.0131 32.6596H35.1307M37.0131 35.8297H35.1307M38.5983 27.9043C38.5983 27.0289 37.8886 26.3192 37.0132 26.3192L31.2522 26.3103C30.4974 26.3092 29.886 25.6969 29.886 24.9421V20.8488C29.886 20.0045 29.4528 19.2192 28.7384 18.769C28.1682 18.4096 27.4119 18.697 27.2224 19.3439L24.933 27.1613C24.5662 28.4139 23.4173 29.2746 22.112 29.2746H20.5461V37.4519H22.968C24.249 37.4519 25.5231 37.6934 26.6978 38.2042C27.8674 38.7127 29.129 38.9751 30.4042 38.9751L37.0131 38.9999C37.8886 38.9999 38.5982 38.2903 38.5982 37.4148C38.5982 36.5394 37.8885 35.8298 37.0131 35.8298C37.8886 35.8298 38.5982 35.1201 38.5982 34.2447C38.5982 33.3692 37.8885 32.6596 37.0131 32.6596C37.8886 32.6596 38.5982 31.9499 38.5982 31.0746C38.5982 30.1992 37.8885 29.4895 37.0131 29.4895C37.8886 29.4893 38.5983 28.7797 38.5983 27.9043Z" stroke="#1E1E1E" stroke-opacity="0.933333" stroke-width="1.14688" stroke-miterlimit="10" stroke-linecap="round" stroke-linejoin="round"/>
<path d="M19.9172 38.6724H16.1245C15.7772 38.6724 15.4955 38.3908 15.4955 38.0434V28.3737C15.4955 28.0263 15.7771 27.7446 16.1245 27.7446H19.9172C20.2645 27.7446 20.5462 28.0262 20.5462 28.3737V38.0434C20.5462 38.3908 20.2646 38.6724 19.9172 38.6724Z" stroke="#1E1E1E" stroke-opacity="0.933333" stroke-width="1.14688" stroke-miterlimit="10" stroke-linecap="round" stroke-linejoin="round"/>
</svg>
