<svg width="38" height="43" viewBox="0 0 38 43" fill="none" xmlns="http://www.w3.org/2000/svg">
<path d="M30.1805 18.2816C30.2006 18.1271 30.2006 18.0465 30.2141 17.9054L30.2208 17.8247C30.3888 14.4721 29.3272 11.5293 27.2309 9.5271C25.1347 7.52491 22.1045 6.59772 18.7048 6.92022C12.0533 7.5585 7.59204 12.0063 7.59204 17.986C7.59204 21.0094 8.72079 24.3822 10.602 26.9958C11.8988 28.7965 12.5841 30.9801 12.5841 33.3182V35.4077C12.5841 35.7571 12.8595 36.0393 13.2089 36.0527C13.1552 36.2274 13.1149 36.4021 13.1149 36.5969C13.1149 37.0538 13.2895 37.4636 13.5583 37.7861C13.2828 38.1086 13.1149 38.5185 13.1149 38.9754C13.1149 39.8891 13.7934 40.6483 14.6669 40.7827C14.9491 42.0458 16.0778 42.9999 17.4283 42.9999H20.8011C22.1516 42.9999 23.2803 42.0526 23.5625 40.7827C24.4427 40.6416 25.1145 39.8891 25.1145 38.9754C25.1145 38.5185 24.9398 38.1086 24.6711 37.7861C24.9466 37.4636 25.1145 37.0538 25.1145 36.5969C25.1145 36.4088 25.0809 36.2341 25.0272 36.0594H25.1683C25.5311 36.0594 25.82 35.7705 25.82 35.4077V30.7516C25.82 30.5501 25.9813 30.3888 26.1828 30.3888H28.138C29.4548 30.3888 30.5231 29.3205 30.5231 28.0036V25.1482L31.5309 25.0272C31.9139 24.9802 32.2498 24.7518 32.4245 24.4091C32.6059 24.0665 32.5992 23.6566 32.438 23.3677L30.1805 18.2816ZM20.8011 41.6965H17.4283C16.8169 41.6965 16.2928 41.3336 16.0442 40.8163H22.1852C21.9366 41.3336 21.4125 41.6965 20.8011 41.6965ZM23.2803 39.5129H14.9491C14.6534 39.5129 14.4116 39.271 14.4116 38.9754C14.4116 38.6797 14.6534 38.4379 14.9491 38.4379H23.2803C23.5759 38.4379 23.8178 38.6797 23.8178 38.9754C23.8111 39.271 23.5759 39.5129 23.2803 39.5129ZM23.8111 36.6036C23.8111 36.8993 23.5692 37.1411 23.2736 37.1411H14.9423C14.6467 37.1411 14.4049 36.8993 14.4049 36.6036C14.4049 36.308 14.6467 36.0661 14.9423 36.0661H23.2736C23.5759 36.0661 23.8111 36.3013 23.8111 36.6036ZM29.7975 23.9254C29.4683 23.9657 29.2197 24.2411 29.2197 24.5704V28.0036C29.2197 28.6016 28.7359 29.0854 28.138 29.0854H26.1895C25.2691 29.0854 24.5233 29.8311 24.5233 30.7516V34.756H23.2803H14.9491H13.8808V33.3249C13.8808 30.7113 13.1081 28.259 11.6569 26.2366C9.92345 23.8313 8.88876 20.7474 8.88876 17.986C8.88876 12.7118 12.8797 8.78803 18.8258 8.21694C21.8828 7.92803 24.4763 8.70069 26.3239 10.4677C28.138 12.2012 29.0584 14.7946 28.9106 17.7576L28.9039 17.8382C28.8972 17.986 28.8905 18.0465 28.8569 18.2749C28.8367 18.3958 28.8569 18.5235 28.9039 18.6377L31.1816 23.7574L29.7975 23.9254Z" fill="#1E1E1E"/>
<path d="M18.6378 5.15328C19.0006 5.15328 19.2895 4.86437 19.2895 4.50156V0.651718C19.2895 0.288906 19.0006 0 18.6378 0C18.275 0 17.9861 0.288906 17.9861 0.651718V4.50156C17.9861 4.86437 18.275 5.15328 18.6378 5.15328Z" fill="#1E1E1E"/>
<path d="M25.3566 6.97416C25.4574 7.03463 25.5716 7.0615 25.6791 7.0615C25.9075 7.0615 26.1225 6.94728 26.2435 6.739L28.1717 3.39978C28.3532 3.09072 28.2457 2.6876 27.9299 2.51291C27.6208 2.3315 27.2177 2.439 27.043 2.75478L25.1147 6.08728C24.9333 6.39635 25.0408 6.79275 25.3566 6.97416Z" fill="#1E1E1E"/>
<path d="M30.8258 12.2349C30.9333 12.2349 31.0475 12.208 31.1483 12.1475L34.4808 10.2193C34.7898 10.0378 34.8973 9.64144 34.7227 9.33238C34.5412 9.02332 34.1448 8.91582 33.8358 9.09051L30.5033 11.0188C30.1942 11.2002 30.0867 11.5966 30.2614 11.9057C30.3823 12.1207 30.6041 12.2349 30.8258 12.2349Z" fill="#1E1E1E"/>
<path d="M36.5434 17.9861H32.6936C32.3308 17.9861 32.0419 18.275 32.0419 18.6378C32.0419 19.0006 32.3308 19.2895 32.6936 19.2895H36.5434C36.9062 19.2895 37.1952 19.0006 37.1952 18.6378C37.1952 18.2817 36.9062 17.9861 36.5434 17.9861Z" fill="#1E1E1E"/>
<path d="M6.04675 25.0475L2.70754 26.9758C2.39847 27.1572 2.29097 27.5536 2.47238 27.8627C2.59332 28.071 2.81503 28.1852 3.03675 28.1852C3.14425 28.1852 3.25847 28.1583 3.35925 28.0978L6.69175 26.1695C7.00081 25.9881 7.10831 25.5917 6.93363 25.2827C6.75222 24.9736 6.35581 24.8728 6.04675 25.0475Z" fill="#1E1E1E"/>
<path d="M5.15316 18.5638C5.15316 18.201 4.86425 17.9121 4.50144 17.9121H0.651596C0.288784 17.9121 -0.00012207 18.201 -0.00012207 18.5638C-0.00012207 18.9266 0.288784 19.2155 0.651596 19.2155H4.50144C4.85753 19.2088 5.15316 18.9199 5.15316 18.5638Z" fill="#1E1E1E"/>
<path d="M6.73217 10.9516L3.39295 9.02329C3.08389 8.84188 2.68076 8.94938 2.50607 9.26516C2.32467 9.57422 2.43217 9.97735 2.74795 10.152L6.08045 12.0803C6.18123 12.1408 6.29545 12.1677 6.40295 12.1677C6.63138 12.1677 6.84638 12.0534 6.96732 11.8452C7.15545 11.5294 7.04795 11.133 6.73217 10.9516Z" fill="#1E1E1E"/>
<path d="M11.0186 6.69866C11.1396 6.90694 11.3613 7.02116 11.583 7.02116C11.6905 7.02116 11.8047 6.99429 11.9055 6.93382C12.2146 6.75241 12.3221 6.35601 12.1474 6.04694L10.2191 2.71444C10.0377 2.39866 9.6413 2.29788 9.33224 2.47257C9.01646 2.65398 8.91568 3.05038 9.09037 3.35944L11.0186 6.69866Z" fill="#1E1E1E"/>
<path d="M26.8546 16.0243C26.6867 15.9302 26.4784 15.9168 26.3037 15.9907L26.1895 16.0377C25.8401 16.1721 25.4437 15.9974 25.3093 15.6547C25.2421 15.48 25.2488 15.3054 25.3227 15.1374C25.3967 14.9694 25.5243 14.8418 25.6923 14.7813L25.8065 14.7343C25.9879 14.6671 26.129 14.5193 26.1895 14.3379C26.2499 14.1565 26.2298 13.9549 26.129 13.7869C25.531 12.8127 24.7113 11.9594 23.7573 11.3211C23.596 11.2136 23.3945 11.18 23.2131 11.2338C23.0249 11.2875 22.8771 11.4219 22.7965 11.5966L22.7495 11.7108C22.6017 12.0468 22.1784 12.2013 21.8559 12.0602C21.5132 11.9124 21.3587 11.5093 21.5065 11.1666L21.5535 11.0524C21.6342 10.8777 21.6274 10.6761 21.5401 10.5015C21.4527 10.3268 21.2982 10.1991 21.1101 10.1588C20.0015 9.89005 18.819 9.86989 17.6902 10.0916C17.5021 10.1319 17.3342 10.2461 17.2468 10.4208C17.1527 10.5888 17.1393 10.7904 17.2132 10.9718L17.2535 11.086C17.3879 11.4354 17.2199 11.825 16.8706 11.9594C16.5279 12.0938 16.1248 11.9191 15.9904 11.5765L15.9434 11.4622C15.8762 11.2808 15.7284 11.1397 15.5403 11.0793C15.3588 11.0188 15.1573 11.039 14.9893 11.1397C14.0151 11.7377 13.1685 12.5574 12.5235 13.5115C12.416 13.6727 12.3824 13.8743 12.4362 14.0557C12.4899 14.2438 12.6243 14.3916 12.799 14.4722L12.9132 14.5193C13.0812 14.5932 13.2088 14.7208 13.2693 14.8955C13.3365 15.0635 13.3298 15.2516 13.2626 15.4129C13.1148 15.7421 12.7184 15.9168 12.369 15.7622L12.2548 15.7152C12.0801 15.6413 11.8785 15.6413 11.7038 15.7286C11.5292 15.816 11.4082 15.9705 11.3612 16.1586C11.0924 17.2739 11.0723 18.4564 11.294 19.5785C11.3343 19.7666 11.4485 19.9279 11.6232 20.0219C11.7912 20.116 11.9928 20.1294 12.1742 20.0555L12.2884 20.0085C12.6445 19.8674 13.0342 20.0488 13.1685 20.3914C13.3029 20.7408 13.1349 21.1305 12.7856 21.2716L12.6713 21.3186C12.4899 21.3925 12.3556 21.5336 12.2951 21.7218C12.2346 21.9032 12.2548 22.1047 12.3623 22.2727C12.9603 23.2469 13.7799 24.1002 14.734 24.7385C14.8953 24.846 15.0901 24.8729 15.2782 24.8258C15.4663 24.7721 15.6142 24.6377 15.6948 24.463L15.7418 24.3488C15.8829 24.0129 16.286 23.8516 16.6354 23.9994C16.8034 24.0733 16.931 24.201 16.9915 24.3689C17.0587 24.5369 17.052 24.7183 16.9781 24.8863L16.931 25.0005C16.8571 25.1752 16.8571 25.3768 16.9445 25.5514C17.0318 25.7261 17.1863 25.8471 17.3745 25.8941C17.9859 26.0419 18.6107 26.1158 19.2356 26.1158C19.7529 26.1158 20.277 26.0621 20.7943 25.9613C20.9824 25.921 21.1504 25.8068 21.2377 25.6321C21.3318 25.4641 21.3452 25.2625 21.2713 25.0811L21.2243 24.9669C21.1571 24.7989 21.1638 24.6175 21.2377 24.4496C21.3117 24.2816 21.4393 24.1539 21.6073 24.0868C21.9499 23.9524 22.3531 24.1338 22.4874 24.4697L22.5345 24.5839C22.6084 24.7654 22.7495 24.8997 22.9376 24.9602C23.119 25.0207 23.3206 25.0005 23.4885 24.8997C24.4627 24.3018 25.316 23.4821 25.9543 22.528C26.0618 22.3668 26.0954 22.1652 26.0349 21.9838C25.9812 21.7957 25.8468 21.6479 25.6721 21.5672L25.5579 21.5202C25.3967 21.4463 25.269 21.3186 25.2018 21.1507C25.1346 20.9827 25.1413 20.8013 25.2085 20.6333C25.3563 20.2974 25.7662 20.1361 26.1021 20.2839L26.2163 20.331C26.391 20.4049 26.5993 20.4049 26.7673 20.3175C26.942 20.2302 27.0629 20.0757 27.1099 19.8875C27.372 18.7722 27.3921 17.5897 27.1704 16.4677C27.1435 16.2796 27.0226 16.1183 26.8546 16.0243ZM25.9677 18.9335C25.1481 18.873 24.3552 19.3568 24.0193 20.116C23.8043 20.5997 23.7976 21.1372 23.9924 21.6277C24.0999 21.9032 24.2679 22.145 24.4762 22.3466C24.147 22.743 23.7707 23.1058 23.3609 23.4216C22.8368 22.8169 21.9298 22.575 21.1437 22.8774C20.6532 23.0722 20.2635 23.4418 20.0485 23.9255C19.9276 24.201 19.8738 24.4899 19.8806 24.7788C19.3699 24.8258 18.8459 24.8191 18.3352 24.7452C18.3554 24.4563 18.3084 24.1674 18.2009 23.8852C18.006 23.3947 17.6365 23.005 17.146 22.7968C16.3801 22.4675 15.4596 22.6691 14.9154 23.2536C14.519 22.9244 14.1562 22.5482 13.8404 22.1383C14.4518 21.6008 14.6937 20.7207 14.3846 19.9211C14.0756 19.1418 13.3432 18.6311 12.4832 18.6647C12.4362 18.1541 12.4429 17.63 12.5168 17.1194C13.3365 17.1732 14.1293 16.6961 14.4653 15.9369C14.6735 15.4532 14.687 14.9157 14.4921 14.4185C14.3846 14.143 14.2167 13.9011 14.0084 13.6996C14.3376 13.3032 14.7138 12.9404 15.1237 12.6313C15.6478 13.2293 16.5615 13.4711 17.3409 13.1688C18.1404 12.853 18.6174 12.0804 18.5973 11.2674C19.1146 11.2204 19.6387 11.2271 20.1426 11.2943C20.0888 12.1005 20.539 12.9 21.3251 13.2427C22.091 13.5719 23.0048 13.3704 23.5557 12.7858C23.9521 13.115 24.3149 13.4913 24.6307 13.9011C24.4157 14.0893 24.241 14.3311 24.1201 14.5999C23.9118 15.0836 23.8984 15.6211 24.0932 16.1183C24.4023 16.8977 25.1481 17.4083 25.9946 17.3747C26.0484 17.8988 26.0417 18.4161 25.9677 18.9335Z" fill="#1E1E1E"/>
<path d="M19.2491 13.9213C16.9849 13.9213 15.1372 15.7622 15.1372 18.0331C15.1372 20.2974 16.9781 22.145 19.2491 22.145C21.5133 22.145 23.361 20.3041 23.361 18.0331C23.361 15.7622 21.5133 13.9213 19.2491 13.9213ZM19.2491 20.8349C17.7038 20.8349 16.4406 19.5717 16.4406 18.0264C16.4406 16.4811 17.6971 15.218 19.2491 15.218C20.7944 15.218 22.0575 16.4744 22.0575 18.0264C22.0575 19.5785 20.7944 20.8349 19.2491 20.8349Z" fill="#1E1E1E"/>
</svg>
