<svg width="151" height="48" viewBox="0 0 151 48" fill="none" xmlns="http://www.w3.org/2000/svg">
<mask id="mask0_2810_231" style="mask-type:luminance" maskUnits="userSpaceOnUse" x="0" y="0" width="151" height="48">
<path d="M150.573 0H0V47.2286H150.573V0Z" fill="white"/>
</mask>
<g mask="url(#mask0_2810_231)">
<path d="M0 10.2859H9.12825L18.1712 28.8002L27.2141 10.2859H36.3424L18.4271 46.2859H17.9153L0 10.2859Z" fill="white"/>
<path d="M74.3903 10.2859H83.4332V27.6002C83.4332 30.943 83.6891 33.343 84.1157 34.6287C84.5422 35.9145 85.31 36.943 86.3336 37.7145C87.3573 38.4002 88.637 38.8287 90.0873 38.8287C91.5375 38.8287 92.8172 38.4859 93.9262 37.7145C94.95 37.0287 95.7178 35.9145 96.2296 34.543C96.5709 33.5145 96.8268 31.2859 96.8268 27.8573V10.2859H105.784V25.543C105.784 31.8002 105.273 36.0859 104.334 38.4002C103.14 41.2287 101.348 43.3716 99.0449 44.9145C96.6562 46.4573 93.7556 47.143 90.0873 47.143C86.163 47.143 83.0066 46.2859 80.5326 44.4859C78.1439 42.6859 76.4377 40.2859 75.414 37.1145C74.7315 34.9716 74.3903 30.943 74.3903 25.2002V10.2859Z" fill="white"/>
<path d="M108.773 10.2859H136.243L120.119 38.6573H135.304V46.2859H106.299L122.508 17.9145H108.773V10.2859Z" fill="white"/>
<mask id="mask1_2810_231" style="mask-type:luminance" maskUnits="userSpaceOnUse" x="33" y="9" width="38" height="23">
<path d="M40.1804 24.4289C41.3747 20.9146 43.5075 18.4289 46.8346 16.8003C48.4555 16.0289 50.2471 15.686 52.0386 15.686C54.342 15.686 56.4747 16.286 58.4369 17.486C60.8256 18.9432 62.6171 20.9146 63.5555 23.5717C64.1527 25.1146 64.238 25.1146 62.9584 25.1146C62.7877 25.1146 62.7024 25.1146 62.5318 25.1146C56.3894 25.1146 50.1617 25.1146 44.0194 25.1146C43.5928 25.1146 43.081 25.1146 42.6544 25.1146C41.9719 25.1146 41.2894 25.1146 40.6069 25.1146H40.5216C40.1804 25.0289 40.0951 24.9432 40.1804 24.4289ZM48.8821 9.68601C45.4697 10.286 42.4838 11.6574 39.9245 13.886C36.9386 16.3717 34.9764 19.6289 33.8674 23.4003C33.1849 25.7146 33.0996 28.0289 33.2702 30.3432C33.3555 31.3717 33.5261 31.4574 34.5499 31.4574H52.0386C57.8397 31.4574 63.7262 31.4574 69.5273 31.4574C70.6363 31.4574 70.7216 31.286 70.8923 30.1717C70.9776 28.9717 70.9776 27.686 70.8923 26.486C70.6363 23.4003 69.6126 20.5717 67.9064 17.9146C66.2002 15.2574 63.9821 13.286 61.2521 11.7432C59.1194 10.5432 56.7307 9.77173 54.2567 9.51459C53.5742 9.42887 52.8917 9.42887 52.2092 9.42887C51.1002 9.34316 49.9911 9.42887 48.8821 9.68601Z" fill="white"/>
</mask>
<g mask="url(#mask1_2810_231)">
<path d="M70.8919 9.34326H33.1846V31.3718H70.8919V9.34326Z" fill="url(#paint0_linear_2810_231)"/>
</g>
<mask id="mask2_2810_231" style="mask-type:luminance" maskUnits="userSpaceOnUse" x="38" y="36" width="28" height="12">
<path d="M41.9742 37.1137C40.9505 38.1422 39.8414 39.2565 38.7324 40.2851C38.2205 40.7994 38.3058 41.0565 38.7324 41.5708C39.9267 42.8565 41.377 43.9708 42.9126 44.7422C45.7279 46.2851 48.7137 47.1422 51.9556 47.0565C54.4296 47.0565 56.8183 46.6279 59.0363 45.6851C61.425 44.6565 63.5578 43.2851 65.3493 41.3994C65.7759 40.9708 65.7759 40.7137 65.3493 40.2851C64.2403 39.2565 63.2166 38.1422 62.1075 37.1137C61.425 36.4279 61.425 36.4279 60.6573 37.1137C59.9748 37.7994 59.2923 38.3994 58.5245 38.8279C55.6239 40.6279 52.4674 41.0565 49.2256 40.3708C46.9222 39.8565 44.8748 38.6565 43.1686 37.0279C42.8273 36.6851 42.742 36.5994 42.5714 36.5994C42.4861 36.6851 42.3154 36.8565 41.9742 37.1137Z" fill="white"/>
</mask>
<g mask="url(#mask2_2810_231)">
<path d="M65.9471 36.5139H38.3064V47.1425H65.9471V36.5139Z" fill="url(#paint1_linear_2810_231)"/>
</g>
<path d="M145.198 10.629C148.025 10.629 150.317 8.32644 150.317 5.48612C150.317 2.6458 148.025 0.343262 145.198 0.343262C142.372 0.343262 140.079 2.6458 140.079 5.48612C140.079 8.32644 142.372 10.629 145.198 10.629Z" stroke="white" stroke-width="0.647" stroke-miterlimit="10"/>
<path d="M143.152 7.79947V3.1709H145.2C145.626 3.1709 145.882 3.1709 146.138 3.25661C146.309 3.34233 146.479 3.51376 146.65 3.68518C146.735 3.85661 146.821 4.11376 146.821 4.3709C146.821 4.71376 146.735 4.9709 146.479 5.22804C146.309 5.48518 145.967 5.5709 145.541 5.65661C145.712 5.74233 145.797 5.82804 145.882 5.91376C146.053 6.08518 146.223 6.25661 146.394 6.51376L147.162 7.79947H146.394L145.797 6.85661C145.626 6.59947 145.456 6.34233 145.37 6.25661C145.285 6.08518 145.114 5.99947 145.029 5.91376C144.944 5.82804 144.858 5.82804 144.773 5.82804C144.688 5.82804 144.603 5.82804 144.432 5.82804H143.749V7.88518H143.152V7.79947ZM143.749 5.14233H145.029C145.285 5.14233 145.541 5.14233 145.712 5.05661C145.882 4.9709 145.967 4.88518 146.053 4.79947C146.138 4.71376 146.138 4.54233 146.138 4.3709C146.138 4.11376 146.053 3.94233 145.882 3.85661C145.712 3.68518 145.456 3.68518 145.114 3.68518H143.664V5.14233H143.749Z" fill="white"/>
</g>
<defs>
<linearGradient id="paint0_linear_2810_231" x1="33.2771" y1="20.4087" x2="70.8974" y2="20.4087" gradientUnits="userSpaceOnUse">
<stop stop-color="#00ABC7"/>
<stop offset="0.1151" stop-color="#00ADBE"/>
<stop offset="0.338" stop-color="#26B2A6"/>
<stop offset="0.6462" stop-color="#6ABC7E"/>
<stop offset="1" stop-color="#9DCB3B"/>
</linearGradient>
<linearGradient id="paint1_linear_2810_231" x1="38.4386" y1="41.87" x2="65.7787" y2="41.87" gradientUnits="userSpaceOnUse">
<stop stop-color="#00ABC7"/>
<stop offset="0.1151" stop-color="#00ADBE"/>
<stop offset="0.338" stop-color="#26B2A6"/>
<stop offset="0.6462" stop-color="#6ABC7E"/>
<stop offset="1" stop-color="#9DCB3B"/>
</linearGradient>
</defs>
</svg>
