<svg width="151" height="48" viewBox="0 0 151 48" fill="none" xmlns="http://www.w3.org/2000/svg">
<g clip-path="url(#clip0_3312_2)">
<mask id="mask0_3312_2" style="mask-type:luminance" maskUnits="userSpaceOnUse" x="0" y="0" width="151" height="48">
<path d="M150.573 0H0V47.2286H150.573V0Z" fill="white"/>
</mask>
<g mask="url(#mask0_3312_2)">
<path d="M0 10.2856H9.12825L18.1712 28.7999L27.2141 10.2856H36.3424L18.4271 46.2856H17.9153L0 10.2856Z" fill="#002840"/>
<path d="M74.3904 10.2856H83.4333V27.5999C83.4333 30.9428 83.6892 33.3428 84.1158 34.6285C84.5424 35.9142 85.3102 36.9428 86.3337 37.7142C87.3574 38.3999 88.6371 38.8285 90.0874 38.8285C91.5377 38.8285 92.8173 38.4856 93.9264 37.7142C94.9501 37.0285 95.7179 35.9142 96.2298 34.5428C96.571 33.5142 96.8269 31.2856 96.8269 27.8571V10.2856H105.785V25.5428C105.785 31.7999 105.273 36.0856 104.334 38.3999C103.14 41.2285 101.348 43.3714 99.045 44.9142C96.6563 46.4571 93.7557 47.1428 90.0874 47.1428C86.1631 47.1428 83.0068 46.2856 80.5328 44.4856C78.1441 42.6856 76.4378 40.2856 75.4141 37.1142C74.7316 34.9714 74.3904 30.9428 74.3904 25.1999V10.2856Z" fill="#002840"/>
<path d="M108.773 10.2856H136.243L120.119 38.6571H135.304V46.2856H106.299L122.508 17.9142H108.773V10.2856Z" fill="#002840"/>
<mask id="mask1_3312_2" style="mask-type:luminance" maskUnits="userSpaceOnUse" x="33" y="9" width="38" height="23">
<path d="M40.1804 24.4291C41.3747 20.9148 43.5075 18.4291 46.8346 16.8005C48.4555 16.0291 50.2471 15.6863 52.0386 15.6863C54.342 15.6863 56.4747 16.2863 58.4369 17.4863C60.8256 18.9434 62.6171 20.9148 63.5555 23.572C64.1527 25.1148 64.238 25.1148 62.9584 25.1148C62.7877 25.1148 62.7024 25.1148 62.5318 25.1148C56.3894 25.1148 50.1617 25.1148 44.0194 25.1148C43.5928 25.1148 43.081 25.1148 42.6544 25.1148C41.9719 25.1148 41.2894 25.1148 40.6069 25.1148H40.5216C40.1804 25.0291 40.0951 24.9434 40.1804 24.4291ZM48.8821 9.68626C45.4697 10.2863 42.4838 11.6577 39.9245 13.8863C36.9386 16.372 34.9764 19.6291 33.8674 23.4005C33.1849 25.7148 33.0996 28.0291 33.2702 30.3434C33.3555 31.372 33.5261 31.4577 34.5499 31.4577H52.0386C57.8397 31.4577 63.7262 31.4577 69.5273 31.4577C70.6363 31.4577 70.7216 31.2863 70.8923 30.172C70.9776 28.972 70.9776 27.6863 70.8923 26.4863C70.6363 23.4005 69.6126 20.572 67.9064 17.9148C66.2002 15.2577 63.9821 13.2863 61.2521 11.7434C59.1194 10.5434 56.7307 9.77197 54.2567 9.51483C53.5742 9.42912 52.8917 9.42912 52.2092 9.42912C51.1002 9.3434 49.9911 9.42912 48.8821 9.68626Z" fill="white"/>
</mask>
<g mask="url(#mask1_3312_2)">
<path d="M70.8919 9.34326H33.1846V31.3718H70.8919V9.34326Z" fill="url(#paint0_linear_3312_2)"/>
</g>
<mask id="mask2_3312_2" style="mask-type:luminance" maskUnits="userSpaceOnUse" x="38" y="36" width="28" height="12">
<path d="M41.9743 37.1139C40.9506 38.1425 39.8416 39.2568 38.7325 40.2853C38.2206 40.7996 38.306 41.0568 38.7325 41.571C39.9269 42.8568 41.3771 43.971 42.9127 44.7425C45.728 46.2853 48.7139 47.1425 51.9557 47.0568C54.4297 47.0568 56.8184 46.6282 59.0365 45.6853C61.4252 44.6568 63.5579 43.2853 65.3495 41.3996C65.776 40.971 65.776 40.7139 65.3495 40.2853C64.2404 39.2568 63.2167 38.1425 62.1077 37.1139C61.4252 36.4282 61.4252 36.4282 60.6574 37.1139C59.9749 37.7996 59.2924 38.3996 58.5246 38.8282C55.624 40.6282 52.4675 41.0568 49.2257 40.371C46.9223 39.8568 44.8749 38.6568 43.1687 37.0282C42.8274 36.6853 42.7421 36.5996 42.5715 36.5996C42.4862 36.6853 42.3156 36.8568 41.9743 37.1139Z" fill="white"/>
</mask>
<g mask="url(#mask2_3312_2)">
<path d="M65.9473 36.5142H38.3066V47.1427H65.9473V36.5142Z" fill="url(#paint1_linear_3312_2)"/>
</g>
<path d="M145.198 10.629C148.025 10.629 150.317 8.32644 150.317 5.48612C150.317 2.6458 148.025 0.343262 145.198 0.343262C142.372 0.343262 140.079 2.6458 140.079 5.48612C140.079 8.32644 142.372 10.629 145.198 10.629Z" stroke="#002840" stroke-width="0.647" stroke-miterlimit="10"/>
<path d="M143.152 7.79947V3.1709H145.2C145.626 3.1709 145.882 3.1709 146.138 3.25661C146.309 3.34233 146.479 3.51376 146.65 3.68518C146.735 3.85661 146.821 4.11376 146.821 4.3709C146.821 4.71376 146.735 4.9709 146.479 5.22804C146.309 5.48518 145.968 5.5709 145.541 5.65661C145.712 5.74233 145.797 5.82804 145.882 5.91376C146.053 6.08518 146.224 6.25661 146.394 6.51376L147.162 7.79947H146.394L145.797 6.85661C145.626 6.59947 145.456 6.34233 145.37 6.25661C145.285 6.08518 145.115 5.99947 145.029 5.91376C144.944 5.82804 144.859 5.82804 144.773 5.82804C144.688 5.82804 144.603 5.82804 144.432 5.82804H143.75V7.88518H143.152V7.79947ZM143.75 5.14233H145.029C145.285 5.14233 145.541 5.14233 145.712 5.05661C145.882 4.9709 145.968 4.88518 146.053 4.79947C146.138 4.71376 146.138 4.54233 146.138 4.3709C146.138 4.11376 146.053 3.94233 145.882 3.85661C145.712 3.68518 145.456 3.68518 145.114 3.68518H143.664V5.14233H143.75Z" fill="#002840"/>
</g>
</g>
<defs>
<linearGradient id="paint0_linear_3312_2" x1="33.2771" y1="20.4087" x2="70.8974" y2="20.4087" gradientUnits="userSpaceOnUse">
<stop stop-color="#00ABC7"/>
<stop offset="0.1151" stop-color="#00ADBE"/>
<stop offset="0.338" stop-color="#26B2A6"/>
<stop offset="0.6462" stop-color="#6ABC7E"/>
<stop offset="1" stop-color="#9DCB3B"/>
</linearGradient>
<linearGradient id="paint1_linear_3312_2" x1="38.4389" y1="41.8703" x2="65.7789" y2="41.8703" gradientUnits="userSpaceOnUse">
<stop stop-color="#00ABC7"/>
<stop offset="0.1151" stop-color="#00ADBE"/>
<stop offset="0.338" stop-color="#26B2A6"/>
<stop offset="0.6462" stop-color="#6ABC7E"/>
<stop offset="1" stop-color="#9DCB3B"/>
</linearGradient>
<clipPath id="clip0_3312_2">
<rect width="151" height="48" fill="white"/>
</clipPath>
</defs>
</svg>
